<?xml version="1.0" encoding="iso-8859-1"?>
<!-- Generator: Adobe Illustrator 19.0.0, SVG Export Plug-In . SVG Version: 6.00 Build 0)  -->
<svg version="1.1" id="Capa_1" xmlns="http://www.w3.org/2000/svg" xmlns:xlink="http://www.w3.org/1999/xlink" x="0px" y="0px"
	 viewBox="0 0 512 512" style="enable-background:new 0 0 512 512;" xml:space="preserve">
<circle style="fill:#005ECE;" cx="256" cy="256" r="256"/>
<path style="fill:#00479B;" d="M100.174,356.174V122.435h110.502L268.91,64.2l25.646-25.646l83.879,83.88h33.391l97.716,97.948
	C511.163,232.023,512,243.913,512,256c0,141.384-114.616,256-256,256L100.174,356.174z"/>
<polygon style="fill:#57A4FF;" points="411.826,122.435 411.826,356.174 244.441,356.174 178.087,422.957 178.087,356.174 
	100.174,356.174 100.174,122.435 "/>
<rect x="256" y="122.435" style="fill:#2488FF;" width="155.826" height="233.739"/>
<g>
	<rect x="155.826" y="189.217" style="fill:#3E3D42;" width="200.348" height="22.261"/>
	<rect x="155.826" y="267.13" style="fill:#3E3D42;" width="200.348" height="22.261"/>
</g>
<g>
	<rect x="256" y="189.217" style="fill:#1D1D1F;" width="100.174" height="22.261"/>
	<rect x="256" y="267.13" style="fill:#1D1D1F;" width="100.174" height="22.261"/>
</g>
<polygon style="fill:#FFDAAA;" points="209.07,192.429 157.778,209.526 174.876,158.235 294.555,38.555 328.75,72.75 "/>
<polygon style="fill:#FFC477;" points="311.652,55.652 157.778,209.526 209.07,192.429 328.75,72.75 "/>
<rect x="227.625" y="30.866" transform="matrix(-0.7071 -0.7071 0.7071 -0.7071 348.1951 375.2063)" style="fill:#FFDA44;" width="48.361" height="169.248"/>
<rect x="248.269" y="39.42" transform="matrix(-0.7071 -0.7071 0.7071 -0.7071 356.7476 395.8578)" style="fill:#FFA733;" width="24.178" height="169.248"/>
<rect x="274.653" y="50.35" transform="matrix(-0.7071 -0.7071 0.7071 -0.7071 461.7153 328.2161)" style="fill:#FFFFFF;" width="48.361" height="36.268"/>
<rect x="295.291" y="58.883" transform="matrix(-0.7071 -0.7071 0.7071 -0.7071 470.2716 348.828)" style="fill:#E1E3FA;" width="24.178" height="36.268"/>
<rect x="266.105" y="70.986" transform="matrix(-0.7071 -0.7071 0.7071 -0.7071 441.079 336.7622)" style="fill:#D8D7DA;" width="48.361" height="12.09"/>
<rect x="286.741" y="79.521" transform="matrix(-0.7071 -0.7071 0.7071 -0.7071 449.6315 357.3757)" style="fill:#C6C5CA;" width="24.178" height="12.09"/>
<polygon style="fill:#1D1D1F;" points="166.327,183.88 157.778,209.526 183.424,200.978 "/>
<polygon points="174.876,192.429 157.778,209.526 183.424,200.978 "/>
<g>
</g>
<g>
</g>
<g>
</g>
<g>
</g>
<g>
</g>
<g>
</g>
<g>
</g>
<g>
</g>
<g>
</g>
<g>
</g>
<g>
</g>
<g>
</g>
<g>
</g>
<g>
</g>
<g>
</g>
</svg>
